# xmcd
#
# Track frame offsets:
#	150
#	21540
#	46985
#	64565
#	88295
#	117212
#	141035
#	158792
#	178190
#	196910
#
# Disc length: 2860 seconds
#
# Revision: 2
# Processed by: cddbd v1.5PL3 Copyright (c) Steve Scherf et al.
# Submitted via: MusicWizard 6.0.1
#
DISCID=890b2a0a
DTITLE=Farmer Not So John - Receiver
DYEAR=1998
DGENRE=Rock
TTITLE0=Paperthin
TTITLE1=Fuse
TTITLE2=Consigned To Oblivion
TTITLE3=Rise Above The Wreckage
TTITLE4=For You I Will Pretend
TTITLE5=Undertow
TTITLE6=No Time To Please You
TTITLE7=Me Too
TTITLE8=Grand Bouquet
TTITLE9=Pen Across The Page
EXTD=
EXTT0=
EXTT1=
EXTT2=
EXTT3=
EXTT4=
EXTT5=
EXTT6=
EXTT7=
EXTT8=
EXTT9=
PLAYORDER=
